<?xml version="1.0" encoding="UTF-8" standalone="no"?>
<!-- Created with Inkscape (http://www.inkscape.org/) -->

<svg
   xmlns:dc="http://purl.org/dc/elements/1.1/"
   xmlns:cc="http://creativecommons.org/ns#"
   xmlns:rdf="http://www.w3.org/1999/02/22-rdf-syntax-ns#"
   xmlns:svg="http://www.w3.org/2000/svg"
   xmlns="http://www.w3.org/2000/svg"
   xmlns:sodipodi="http://sodipodi.sourceforge.net/DTD/sodipodi-0.dtd"
   xmlns:inkscape="http://www.inkscape.org/namespaces/inkscape"
   width="64mm"
   height="45mm"
   viewBox="0 0 64 45"
   version="1.1"
   id="svg8"
   inkscape:version="0.92.2 2405546, 2018-03-11"
   sodipodi:docname="logo.svg">
  <defs
     id="defs2" />
  <sodipodi:namedview
     id="base"
     pagecolor="#ffffff"
     bordercolor="#666666"
     borderopacity="1.0"
     inkscape:pageopacity="0.0"
     inkscape:pageshadow="2"
     inkscape:zoom="0.35"
     inkscape:cx="431.58968"
     inkscape:cy="896.35425"
     inkscape:document-units="mm"
     inkscape:current-layer="flowRoot4531"
     showgrid="false"
     inkscape:window-width="1143"
     inkscape:window-height="1400"
     inkscape:window-x="1147"
     inkscape:window-y="18"
     inkscape:window-maximized="0"
     width="249mm" />
  <metadata
     id="metadata5">
    <rdf:RDF>
      <cc:Work
         rdf:about="">
        <dc:format>image/svg+xml</dc:format>
        <dc:type
           rdf:resource="http://purl.org/dc/dcmitype/StillImage" />
        <dc:title></dc:title>
      </cc:Work>
    </rdf:RDF>
  </metadata>
  <g
     inkscape:label="Layer 1"
     inkscape:groupmode="layer"
     id="layer1"
     transform="translate(0,-252)">
    <path
       style="fill:#ff6600;stroke-width:0.18859409"
       d="m 17.516327,283.0569 c -1.82006,-0.47674 -3.26155,-1.3173 -4.6607,-2.71773 -2.664701,-2.66709 -3.5987407,-6.32238 -2.466351,-9.65176 0.615791,-1.81049 1.173571,-2.63437 3.875381,-5.72418 2.52145,-2.88354 3.54204,-3.70467 5.4353,-4.37305 1.05653,-0.37299 1.33196,-0.57803 2.13918,-1.59245 0.95419,-1.19916 2.05019,-1.89117 3.32208,-2.09757 1.0001,-0.1623 2.89577,0.86358 3.62212,1.96018 0.72969,1.10161 0.88764,1.94562 0.61296,3.27542 -0.27788,1.34537 -0.2672,1.89234 0.045,2.30359 0.34563,0.45531 0.52566,0.41794 1.15595,-0.23995 1.11055,-1.15917 2.65663,-1.15566 3.77203,0.008 0.62197,0.64921 0.80288,0.68568 1.14775,0.23138 0.31218,-0.41125 0.32285,-0.95822 0.045,-2.30359 -0.27467,-1.3298 -0.11672,-2.17381 0.61295,-3.27542 0.72636,-1.0966 2.62202,-2.12248 3.62212,-1.96018 1.2719,0.2064 2.36789,0.89841 3.3221,2.09757 0.8072,1.01442 1.08263,1.21947 2.13916,1.59245 1.89328,0.66838 2.91387,1.48951 5.4353,4.37305 2.73157,3.12384 3.29639,3.95793 3.88714,5.74025 1.1105,3.35038 0.17767,6.97754 -2.47809,9.63569 -1.42207,1.42336 -2.84643,2.2435 -4.73541,2.72662 -1.83655,0.46971 -2.38782,0.46823 -4.26648,-0.0114 -1.98869,-0.50776 -3.379,-1.30684 -4.83828,-2.78082 -1.16568,-1.17742 -2.48295,-3.42487 -2.48295,-4.23625 0,-0.58286 -0.49044,-0.5656 -1.15415,0.0406 -0.55379,0.50581 -1.55492,0.948 -2.14625,0.948 -0.59134,0 -1.59247,-0.44219 -2.14626,-0.948 -0.66373,-0.60621 -1.15415,-0.62347 -1.15415,-0.0406 0,0.81138 -1.31728,3.05883 -2.48296,4.23625 -1.45928,1.47398 -2.84959,2.27306 -4.83827,2.78082 -1.8414,0.47015 -2.55443,0.47057 -4.34117,0.003 z m 3.8407,-1.7081 c 0.6113,-0.11301 1.53467,-0.41992 2.0519,-0.68202 1.27566,-0.64643 2.93078,-2.35927 3.60728,-3.73307 0.52312,-1.06232 0.55728,-1.27006 0.55836,-3.39469 7.1e-4,-2.04592 -0.046,-2.36269 -0.48868,-3.3004 -1.04758,-2.21846 -3.37181,-4.09986 -5.60349,-4.53586 -4.65364,-0.90916 -8.87039,1.93508 -9.66917,6.52192 -0.70683,4.05892 2.04001,8.17579 6.04987,9.06734 1.33715,0.29731 2.12364,0.31009 3.49393,0.0568 z m 25.46019,0 c 4.14401,-0.76606 7.05292,-4.96041 6.32783,-9.12412 -0.63022,-3.619 -3.5146,-6.34123 -7.02882,-6.63367 -2.82789,-0.23533 -5.04446,0.61285 -6.86507,2.62692 -0.48893,0.54088 -1.10936,1.45019 -1.37875,2.02069 -0.4428,0.93771 -0.48971,1.25448 -0.48868,3.3004 10e-4,2.12463 0.0352,2.33237 0.55835,3.39469 0.65182,1.32368 2.30826,3.06838 3.50381,3.6905 1.59027,0.82752 3.45429,1.07898 5.37133,0.72459 z m -13.15466,-6.01893 c 0.69118,-0.42142 0.98543,-1.02176 0.98543,-2.01059 0,-0.5067 -0.15386,-0.82051 -0.64124,-1.30788 -0.54731,-0.54732 -0.77101,-0.64122 -1.5276,-0.64122 -0.7566,0 -0.98029,0.0939 -1.52762,0.64122 -0.6839,0.68392 -0.83111,1.47511 -0.45732,2.45822 0.23082,0.60713 1.2414,1.23682 1.98494,1.23682 0.31118,0 0.84371,-0.16946 1.18341,-0.37657 z"
       id="path4529"
       inkscape:connector-curvature="0" />
    <g
       aria-label="WebStalker"
       transform="matrix(0.26458333,0,0,0.26458333,-1.8708867,-1.3363476)"
       style="font-style:normal;font-variant:normal;font-weight:normal;font-stretch:normal;font-size:40px;line-height:1.25;font-family:'Operator Mono';-inkscape-font-specification:'Operator Mono, Normal';font-variant-ligatures:normal;font-variant-caps:normal;font-variant-numeric:normal;font-feature-settings:normal;text-align:start;letter-spacing:0px;word-spacing:0px;writing-mode:lr-tb;text-anchor:start;fill:#000000;fill-opacity:1;stroke:none"
       id="flowRoot4531">
      <path
         d="m 35.862604,1118.1176 h 5.48 c 0.52,-4.68 1.32,-14.12 1.84,-24.8 h -5.48 l -0.32,16.92 h -0.16 c -0.92,-3.68 -1.48,-5.76 -2.48,-9.4 h -2.92 c -0.92,3.64 -1.32,5.68 -2.2,9.4 h -0.16 l -0.6,-16.92 h -5.64 c 0.52,10.68 1.28,20.12 1.8,24.8 h 5.32 l 2.68,-10.68 z"
         id="path4558"
         inkscape:connector-curvature="0" />
      <path
         d="m 63.093854,1118.5976 0.52,-4.68 c -8.08,-0.12 -11.08,-1.04 -11.72,-4.4 l 12.2,-0.32 c 0.72,-7.4 -1.96,-11.88 -7.76,-11.88 -5.4,0 -10.16,4.8 -10.16,11.12 0,6.6 3.4,10.52 16.92,10.16 z m -7.8,-16.68 c 2.28,0 3.2,1.48 3.32,4.12 -2.08,0.04 -5,0.16 -6.84,0.2 0.2,-3.2 1.36,-4.32 3.52,-4.32 z"
         id="path4560"
         inkscape:connector-curvature="0" />
      <path
         d="m 75.165104,1118.6776 c 6.08,0 11.4,-4.44 11.4,-11.8 0,-5.84 -3,-9.56 -7.2,-9.56 -1.96,0 -3.56,0.84 -4.8,2 v -9.8 l -5.68,0.48 v 27.56 c 1.92,0.76 3.92,1.12 6.28,1.12 z m 2.04,-4.88 c -1,0 -1.8,-0.16 -2.64,-0.44 v -10.64 c 0.8,-0.52 1.64,-0.8 2.44,-0.8 2.36,0 3.92,2.04 3.92,6.36 0,4 -1.16,5.52 -3.72,5.52 z"
         id="path4562"
         inkscape:connector-curvature="0" />
      <path
         d="m 91.276354,1113.2376 v 5.2 c 12.439996,0.32 16.719996,-3.88 16.719996,-7.96 0,-5.88 -10.759996,-7.48 -10.759996,-10.6 0,-1.52 1.72,-2.12 9.159996,-1.6 l -0.32,-5.2 c -10.399996,-0.52 -14.999996,3.64 -14.999996,7.56 0,5.68 10.759996,7 10.759996,10.52 0,1.76 -2.759996,2.6 -10.559996,2.08 z"
         id="path4564"
         inkscape:connector-curvature="0" />
      <path
         d="m 128.9476,1118.3976 0.6,-4.64 c -5.56,-0.12 -7.44,-0.68 -7.44,-3.52 v -8.08 h 7.04 v -4.28 h -7.04 v -5.8 l -5.64,0.52 v 5.28 h -3.6 l -0.48,4.28 h 4.08 v 8.96 c 0,5.4 3,7.52 12.48,7.28 z"
         id="path4566"
         inkscape:connector-curvature="0" />
      <path
         d="m 142.69885,1114.3576 c -1.68,0 -2.68,-0.88 -2.68,-2.36 0,-1.72 0.92,-2.76 6.08,-2.2 0.04,1.32 0.04,2.48 0.12,3.48 -1.16,0.68 -2.44,1.08 -3.52,1.08 z m 4.16,3.92 5.24,-0.28 c -0.2,-2.72 -0.44,-6.24 -0.44,-9.88 0,-8.04 -2.92,-10.64 -15.64,-10.68 l -0.52,4.76 c 8.32,0.2 10.28,0.92 10.56,4 -8.2,-0.16 -11.68,3.2 -11.68,7.16 0,3.28 2.44,5.28 6,5.28 2.68,0 4.64,-1.2 6.08,-2.64 z"
         id="path4568"
         inkscape:connector-curvature="0" />
      <path
         d="m 173.8901,1118.1176 0.48,-4.24 h -5.96 v -23.8 h -11.08 l -0.48,4.08 5.84,0.32 v 19.4 h -5.92 v 4.24 z"
         id="path4570"
         inkscape:connector-curvature="0" />
      <path
         d="m 191.72135,1118.4776 6.08,-0.72 -6.28,-10.56 c 2.04,-2.92 3.92,-6.04 5.68,-9.04 l -5.84,-0.4 c -1.44,2.84 -2.92,5.48 -4.64,8 l -1.68,0.04 v -16.28 l -5.68,0.48 v 28.12 h 5.68 v -8.28 l 1.8,-0.08 z"
         id="path4572"
         inkscape:connector-curvature="0" />
      <path
         d="m 217.3126,1118.5976 0.52,-4.68 c -8.08,-0.12 -11.08,-1.04 -11.72,-4.4 l 12.2,-0.32 c 0.72,-7.4 -1.96,-11.88 -7.76,-11.88 -5.4,0 -10.16,4.8 -10.16,11.12 0,6.6 3.4,10.52 16.92,10.16 z m -7.8,-16.68 c 2.28,0 3.2,1.48 3.32,4.12 -2.08,0.04 -5,0.16 -6.84,0.2 0.2,-3.2 1.36,-4.32 3.52,-4.32 z"
         id="path4574"
         inkscape:connector-curvature="0" />
      <path
         d="m 238.18385,1118.1176 0.48,-4.24 h -5.52 c -0.08,-3.88 -0.12,-6.76 -0.16,-9.36 2.32,-0.84 4.92,-1.32 7.84,-1.44 l -0.2,-6.04 c -3.52,0.52 -6.2,2.2 -7.92,4.36 l -0.4,-3.52 h -8.96 l -0.44,4.04 4.48,0.32 c 0.08,3.16 0.12,6.8 0.16,11.64 h -4.48 v 4.24 z"
         id="path4576"
         inkscape:connector-curvature="0" />
    </g>
  </g>
</svg>
