<?xml version="1.0" encoding="UTF-8" standalone="no"?>
<!-- Created with Inkscape (http://www.inkscape.org/) -->

<svg
   xmlns:dc="http://purl.org/dc/elements/1.1/"
   xmlns:cc="http://creativecommons.org/ns#"
   xmlns:rdf="http://www.w3.org/1999/02/22-rdf-syntax-ns#"
   xmlns:svg="http://www.w3.org/2000/svg"
   xmlns="http://www.w3.org/2000/svg"
   xmlns:sodipodi="http://sodipodi.sourceforge.net/DTD/sodipodi-0.dtd"
   xmlns:inkscape="http://www.inkscape.org/namespaces/inkscape"
   width="64mm"
   height="45mm"
   viewBox="0 0 64 45"
   version="1.1"
   id="svg8"
   inkscape:version="0.92.2 2405546, 2018-03-11"
   sodipodi:docname="logo.svg">
  <defs
     id="defs2" />
  <sodipodi:namedview
     id="base"
     pagecolor="#ffffff"
     bordercolor="#666666"
     borderopacity="1.0"
     inkscape:pageopacity="0.0"
     inkscape:pageshadow="2"
     inkscape:zoom="4.9130682"
     inkscape:cx="161.21354"
     inkscape:cy="72.979177"
     inkscape:document-units="mm"
     inkscape:current-layer="flowRoot4531"
     showgrid="false"
     inkscape:window-width="3436"
     inkscape:window-height="1400"
     inkscape:window-x="0"
     inkscape:window-y="18"
     inkscape:window-maximized="0"
     width="249mm" />
  <metadata
     id="metadata5">
    <rdf:RDF>
      <cc:Work
         rdf:about="">
        <dc:format>image/svg+xml</dc:format>
        <dc:type
           rdf:resource="http://purl.org/dc/dcmitype/StillImage" />
        <dc:title />
      </cc:Work>
    </rdf:RDF>
  </metadata>
  <g
     inkscape:label="Layer 1"
     inkscape:groupmode="layer"
     id="layer1"
     transform="translate(0,-252)">
    <path
       style="fill:#ff6600;stroke-width:0.18859409"
       d="m 16.457993,283.0569 c -1.82006,-0.47674 -3.26155,-1.3173 -4.6607,-2.71773 -2.6647004,-2.66709 -3.5987401,-6.32238 -2.4663504,-9.65176 0.6157907,-1.81049 1.1735704,-2.63437 3.8753804,-5.72418 2.52145,-2.88354 3.54204,-3.70467 5.4353,-4.37305 1.05653,-0.37299 1.33196,-0.57803 2.13918,-1.59245 0.95419,-1.19916 2.05019,-1.89117 3.32208,-2.09757 1.0001,-0.1623 2.89577,0.86358 3.62212,1.96018 0.72969,1.10161 0.88764,1.94562 0.61296,3.27542 -0.27788,1.34537 -0.2672,1.89234 0.045,2.30359 0.34563,0.45531 0.52566,0.41794 1.15595,-0.23995 1.11055,-1.15917 2.65663,-1.15566 3.77203,0.008 0.62197,0.64921 0.80288,0.68568 1.14775,0.23138 0.31218,-0.41125 0.32285,-0.95822 0.045,-2.30359 -0.27467,-1.3298 -0.11672,-2.17381 0.61295,-3.27542 0.72636,-1.0966 2.62202,-2.12248 3.62212,-1.96018 1.2719,0.2064 2.36789,0.89841 3.3221,2.09757 0.8072,1.01442 1.08263,1.21947 2.13916,1.59245 1.89328,0.66838 2.91387,1.48951 5.4353,4.37305 2.73157,3.12384 3.29639,3.95793 3.88714,5.74025 1.1105,3.35038 0.17767,6.97754 -2.47809,9.63569 -1.42207,1.42336 -2.84643,2.2435 -4.73541,2.72662 -1.83655,0.46971 -2.38782,0.46823 -4.26648,-0.0114 -1.98869,-0.50776 -3.379,-1.30684 -4.83828,-2.78082 -1.16568,-1.17742 -2.48295,-3.42487 -2.48295,-4.23625 0,-0.58286 -0.49044,-0.5656 -1.15415,0.0406 -0.55379,0.50581 -1.55492,0.948 -2.14625,0.948 -0.59134,0 -1.59247,-0.44219 -2.14626,-0.948 -0.66373,-0.60621 -1.15415,-0.62347 -1.15415,-0.0406 0,0.81138 -1.31728,3.05883 -2.48296,4.23625 -1.45928,1.47398 -2.84959,2.27306 -4.83827,2.78082 -1.8414,0.47015 -2.55443,0.47057 -4.34117,0.003 z m 3.8407,-1.7081 c 0.6113,-0.11301 1.53467,-0.41992 2.0519,-0.68202 1.27566,-0.64643 2.93078,-2.35927 3.60728,-3.73307 0.52312,-1.06232 0.55728,-1.27006 0.55836,-3.39469 7.1e-4,-2.04592 -0.046,-2.36269 -0.48868,-3.3004 -1.04758,-2.21846 -3.37181,-4.09986 -5.60349,-4.53586 -4.65364,-0.90916 -8.87039,1.93508 -9.66917,6.52192 -0.70683,4.05892 2.04001,8.17579 6.04987,9.06734 1.33715,0.29731 2.12364,0.31009 3.49393,0.0568 z m 25.46019,0 c 4.14401,-0.76606 7.05292,-4.96041 6.32783,-9.12412 -0.63022,-3.619 -3.5146,-6.34123 -7.02882,-6.63367 -2.82789,-0.23533 -5.04446,0.61285 -6.86507,2.62692 -0.48893,0.54088 -1.10936,1.45019 -1.37875,2.02069 -0.4428,0.93771 -0.48971,1.25448 -0.48868,3.3004 0.001,2.12463 0.0352,2.33237 0.55835,3.39469 0.65182,1.32368 2.30826,3.06838 3.50381,3.6905 1.59027,0.82752 3.45429,1.07898 5.37133,0.72459 z m -13.15466,-6.01893 c 0.69118,-0.42142 0.98543,-1.02176 0.98543,-2.01059 0,-0.5067 -0.15386,-0.82051 -0.64124,-1.30788 -0.54731,-0.54732 -0.77101,-0.64122 -1.5276,-0.64122 -0.7566,0 -0.98029,0.0939 -1.52762,0.64122 -0.6839,0.68392 -0.83111,1.47511 -0.45732,2.45822 0.23082,0.60713 1.2414,1.23682 1.98494,1.23682 0.31118,0 0.84371,-0.16946 1.18341,-0.37657 z"
       id="path4529"
       inkscape:connector-curvature="0" />
    <g
       aria-label="WebStalker"
       transform="matrix(0.26458333,0,0,0.26458333,-1.8708867,-1.3363476)"
       style="font-style:normal;font-variant:normal;font-weight:normal;font-stretch:normal;font-size:40px;line-height:1.25;font-family:'Operator Mono';-inkscape-font-specification:'Operator Mono, Normal';font-variant-ligatures:normal;font-variant-caps:normal;font-variant-numeric:normal;font-feature-settings:normal;text-align:start;letter-spacing:0px;word-spacing:0px;writing-mode:lr-tb;text-anchor:start;fill:#000000;fill-opacity:1;stroke:none"
       id="flowRoot4531">
      <path
         style="fill:#000000;stroke-width:0.1072814"
         d="m 74.983227,1056.5681 c -5.88099,-0.734 -11.10081,-3.106 -16.765913,-7.6188 -1.278709,-1.0187 -5.327363,-4.9469 -5.705957,-5.5362 l -0.189833,-0.2956 0.623533,-0.7236 c 0.829875,-0.9632 2.671725,-2.7936 3.800333,-3.7768 0.501543,-0.437 0.923691,-0.8219 0.938119,-0.8554 0.01445,-0.034 -1.083873,-1.4502 -2.440652,-3.1483 l -2.466878,-3.0875 v -0.544 c 0,-0.4757 0.04586,-0.5899 0.364759,-0.9088 0.31058,-0.3106 0.439093,-0.3648 0.865298,-0.3648 0.275303,0 0.594734,0.05 0.709848,0.1121 0.115114,0.062 1.277473,1.4495 2.583026,3.0843 1.305546,1.6348 2.41138,3.0145 2.457408,3.066 0.04599,0.052 0.77535,-0.3653 1.62072,-0.9263 1.525705,-1.0124 2.90874,-1.8245 4.076222,-2.3937 l 0.608127,-0.2964 -1.922322,-3.8435 c -2.018864,-4.0366 -2.099842,-4.263 -1.759586,-4.921 0.326119,-0.6307 1.361189,-0.8533 1.92074,-0.4131 0.192508,0.1514 0.944257,1.5379 2.257468,4.1635 l 1.968843,3.9366 1.216822,-0.3978 c 2.040281,-0.667 4.717079,-1.1647 6.285872,-1.1687 0.501871,-10e-4 0.777791,-0.045 0.777791,-0.1222 0,-0.066 -0.482768,-1.7837 -1.072814,-3.8167 -0.590047,-2.033 -1.072815,-3.8641 -1.072815,-4.069 0,-0.77 0.550365,-1.328 1.308871,-1.3271 0.428281,5e-4 1.016069,0.339 1.163035,0.6698 0.05905,0.1329 0.657429,2.1405 1.329759,4.4613 0.67233,2.3207 1.247595,4.2447 1.278362,4.2755 0.03079,0.031 0.457269,0.124 0.947784,0.2071 1.124451,0.1906 2.773957,0.6081 3.931017,0.9948 l 0.893548,0.2987 1.970275,-3.9394 c 1.314239,-2.6277 2.066379,-4.015 2.258899,-4.1664 0.55955,-0.4402 1.59462,-0.2176 1.92074,0.4131 0.34022,0.6579 0.25917,0.8847 -1.75729,4.9164 l -1.920024,3.8389 0.981304,0.5018 c 1.30433,0.6671 3.13348,1.7732 4.23686,2.562 0.49245,0.352 0.93458,0.6255 0.98253,0.6077 0.0479,-0.018 1.17648,-1.3937 2.507874,-3.0576 1.33139,-1.664 2.51542,-3.0761 2.63118,-3.138 0.11575,-0.062 0.43571,-0.1127 0.71101,-0.1127 0.42621,0 0.55472,0.054 0.86531,0.3648 0.31891,0.3189 0.36475,0.4331 0.36475,0.9088 v 0.544 l -2.46687,3.0875 c -1.35679,1.6981 -2.45509,3.1148 -2.44066,3.1483 0.0144,0.034 0.43658,0.4193 0.93811,0.8573 1.12395,0.9816 2.96084,2.8074 3.79783,3.7749 0.62283,0.7199 0.62511,0.7251 0.44415,1.0012 -0.10005,0.1527 -0.8889,1.0021 -1.753,1.8875 -5.885894,6.0311 -12.536564,9.8907 -19.010313,11.0323 -1.298664,0.229 -4.770829,0.3808 -5.7932,0.2532 z m 4.666743,-2.9354 c 3.048281,-0.8231 5.434679,-2.6991 6.87313,-5.4031 0.923344,-1.7357 1.251159,-3.0573 1.254434,-5.0574 0.0044,-2.8663 -0.975151,-5.351 -2.907971,-7.374 -1.060179,-1.1097 -1.867186,-1.7039 -3.177546,-2.3397 -1.731284,-0.84 -2.556176,-1.0159 -4.724081,-1.0071 -2.12623,0.01 -2.854291,0.1622 -4.527889,0.955 -1.326649,0.6284 -2.142311,1.2208 -3.199279,2.3233 -3.550827,3.704 -4.01489,9.0835 -1.162738,13.4787 0.611509,0.9423 2.323836,2.5694 3.344907,3.1784 1.062254,0.6335 2.500982,1.1891 3.635205,1.4037 1.195007,0.2262 3.457914,0.1484 4.591828,-0.1578 z m -3.593928,-5.1629 c -1.407475,-0.2266 -3.079547,-1.4366 -3.77814,-2.734 -0.819693,-1.5223 -0.826002,-3.5146 -0.01615,-5.1127 0.377244,-0.7445 1.550656,-1.8994 2.292375,-2.2563 1.660571,-0.7991 3.274382,-0.7991 4.934947,0 0.717632,0.3453 1.874945,1.4828 2.277631,2.2386 0.5702,1.0703 0.775155,2.6171 0.503164,3.7975 -0.464713,2.0168 -2.338389,3.7567 -4.390014,4.0766 -0.793967,0.1238 -1.001275,0.1227 -1.823788,-0.01 z m -10.629209,1.5675 c -0.975788,-1.6062 -1.602311,-3.5348 -1.829888,-5.6331 -0.291377,-2.6866 0.389041,-5.7173 1.819971,-8.1066 0.241432,-0.4031 0.421404,-0.7505 0.399942,-0.772 -0.07476,-0.075 -2.590053,1.4911 -3.887329,2.4199 -1.695893,1.2143 -3.331501,2.5791 -4.840028,4.0386 l -1.211472,1.1721 0.567783,0.5795 c 1.608386,1.6416 4.366508,3.9198 6.360976,5.2542 1.175987,0.7868 2.976565,1.8623 3.029387,1.8095 0.01836,-0.018 -0.165854,-0.3613 -0.409342,-0.7621 z m 25.648613,-0.9734 c 2.29244,-1.5278 4.87829,-3.6444 6.577074,-5.3835 l 0.51568,-0.528 -1.37393,-1.3202 c -1.614704,-1.5516 -3.671644,-3.225 -5.396984,-4.3908 -1.32014,-0.8919 -3.11282,-1.974 -3.172149,-1.9146 -0.01987,0.02 0.178859,0.3964 0.441539,0.8368 0.62522,1.0483 1.25789,2.6825 1.55604,4.0192 0.31316,1.4041 0.34479,3.8357 0.068,5.2257 -0.32261,1.6199 -1.19021,3.8122 -1.90722,4.8191 -0.11255,0.1581 -0.204626,0.3197 -0.204626,0.3592 0,0.1237 1.169946,-0.5721 2.896596,-1.7229 z"
         id="path835"
         inkscape:connector-curvature="0" />
      <path
         style="font-style:normal;font-variant:normal;font-weight:normal;font-stretch:normal;font-size:40px;line-height:1.25;font-family:'Operator Mono';-inkscape-font-specification:'Operator Mono, Normal';font-variant-ligatures:normal;font-variant-caps:normal;font-variant-numeric:normal;font-feature-settings:normal;text-align:start;letter-spacing:0px;word-spacing:0px;writing-mode:lr-tb;text-anchor:start;fill:#000000;fill-opacity:1;stroke:none;stroke-width:0.1072814"
         d="m 176.24657,1056.5681 c 5.88099,-0.734 11.10081,-3.106 16.76591,-7.6188 1.27871,-1.0187 5.32736,-4.9469 5.70596,-5.5362 l 0.18983,-0.2956 -0.62353,-0.7236 c -0.82988,-0.9632 -2.67173,-2.7936 -3.80034,-3.7768 -0.50154,-0.437 -0.92369,-0.8219 -0.93812,-0.8554 -0.0145,-0.034 1.08388,-1.4502 2.44066,-3.1483 l 2.46687,-3.0875 v -0.544 c 0,-0.4757 -0.0459,-0.5899 -0.36475,-0.9088 -0.31058,-0.3106 -0.4391,-0.3648 -0.8653,-0.3648 -0.27531,0 -0.59474,0.05 -0.70985,0.1121 -0.11511,0.062 -1.27747,1.4495 -2.58303,3.0843 -1.30554,1.6348 -2.41138,3.0145 -2.4574,3.066 -0.046,0.052 -0.77535,-0.3653 -1.62072,-0.9263 -1.52571,-1.0124 -2.90874,-1.8245 -4.07623,-2.3937 l -0.60812,-0.2964 1.92232,-3.8435 c 2.01886,-4.0366 2.09984,-4.263 1.75958,-4.921 -0.32611,-0.6307 -1.36118,-0.8533 -1.92074,-0.4131 -0.1925,0.1514 -0.94425,1.5379 -2.25746,4.1635 l -1.96885,3.9366 -1.21682,-0.3978 c -2.04028,-0.667 -4.71708,-1.1647 -6.28587,-1.1687 -0.50187,-10e-4 -0.77779,-0.045 -0.77779,-0.1222 0,-0.066 0.48277,-1.7837 1.07281,-3.8167 0.59005,-2.033 1.07282,-3.8641 1.07282,-4.069 0,-0.77 -0.55037,-1.328 -1.30887,-1.3271 -0.42828,5e-4 -1.01607,0.339 -1.16304,0.6698 -0.0591,0.1329 -0.65743,2.1405 -1.32976,4.4613 -0.67233,2.3207 -1.24759,4.2447 -1.27836,4.2755 -0.0308,0.031 -0.45727,0.124 -0.94778,0.2071 -1.12445,0.1906 -2.77396,0.6081 -3.93102,0.9948 l -0.89355,0.2987 -1.97027,-3.9394 c -1.31424,-2.6277 -2.06638,-4.015 -2.2589,-4.1664 -0.55955,-0.4402 -1.59462,-0.2176 -1.92074,0.4131 -0.34022,0.6579 -0.25917,0.8847 1.75729,4.9164 l 1.92002,3.8389 -0.9813,0.5018 c -1.30433,0.6671 -3.13348,1.7732 -4.23686,2.562 -0.49245,0.352 -0.93458,0.6255 -0.98253,0.6077 -0.0479,-0.018 -1.17648,-1.3937 -2.50788,-3.0576 -1.33139,-1.664 -2.51542,-3.0761 -2.63118,-3.138 -0.11575,-0.062 -0.43571,-0.1127 -0.71101,-0.1127 -0.42621,0 -0.55472,0.054 -0.86531,0.3648 -0.31891,0.3189 -0.36475,0.4331 -0.36475,0.9088 v 0.544 l 2.46687,3.0875 c 1.35679,1.6981 2.45509,3.1148 2.44066,3.1483 -0.0144,0.034 -0.43658,0.4193 -0.93811,0.8573 -1.12395,0.9816 -2.96084,2.8074 -3.79783,3.7749 -0.62283,0.7199 -0.62511,0.7251 -0.44415,1.0012 0.10005,0.1527 0.8889,1.0021 1.753,1.8875 5.8859,6.0311 12.53657,9.8907 19.01032,11.0323 1.29866,0.229 4.77083,0.3808 5.7932,0.2532 z m -4.66675,-2.9354 c -3.04828,-0.8231 -5.43468,-2.6991 -6.87313,-5.4031 -0.92334,-1.7357 -1.25116,-3.0573 -1.25443,-5.0574 -0.004,-2.8663 0.97515,-5.351 2.90797,-7.374 1.06018,-1.1097 1.86719,-1.7039 3.17755,-2.3397 1.73128,-0.84 2.55617,-1.0159 4.72408,-1.0071 2.12623,0.01 2.85429,0.1622 4.52789,0.955 1.32665,0.6284 2.14231,1.2208 3.19928,2.3233 3.55082,3.704 4.01489,9.0835 1.16273,13.4787 -0.61151,0.9423 -2.32383,2.5694 -3.3449,3.1784 -1.06226,0.6335 -2.50099,1.1891 -3.63521,1.4037 -1.19501,0.2262 -3.45791,0.1484 -4.59183,-0.1578 z m 3.59393,-5.1629 c 1.40748,-0.2266 3.07955,-1.4366 3.77814,-2.734 0.81969,-1.5223 0.826,-3.5146 0.0161,-5.1127 -0.37724,-0.7445 -1.55065,-1.8994 -2.29237,-2.2563 -1.66057,-0.7991 -3.27439,-0.7991 -4.93495,0 -0.71763,0.3453 -1.87495,1.4828 -2.27763,2.2386 -0.5702,1.0703 -0.77516,2.6171 -0.50317,3.7975 0.46472,2.0168 2.33839,3.7567 4.39002,4.0766 0.79397,0.1238 1.00127,0.1227 1.82379,-0.01 z m 10.62921,1.5675 c 0.97579,-1.6062 1.60231,-3.5348 1.82989,-5.6331 0.29138,-2.6866 -0.38904,-5.7173 -1.81997,-8.1066 -0.24143,-0.4031 -0.42141,-0.7505 -0.39994,-0.772 0.0748,-0.075 2.59005,1.4911 3.88732,2.4199 1.6959,1.2143 3.33151,2.5791 4.84003,4.0386 l 1.21147,1.1721 -0.56778,0.5795 c -1.60838,1.6416 -4.36651,3.9198 -6.36097,5.2542 -1.17599,0.7868 -2.97657,1.8623 -3.02939,1.8095 -0.0184,-0.018 0.16585,-0.3613 0.40934,-0.7621 z m -25.64861,-0.9734 c -2.29244,-1.5278 -4.87829,-3.6444 -6.57708,-5.3835 l -0.51568,-0.528 1.37393,-1.3202 c 1.61471,-1.5516 3.67165,-3.225 5.39699,-4.3908 1.32014,-0.8919 3.11282,-1.974 3.17215,-1.9146 0.0199,0.02 -0.17886,0.3964 -0.44154,0.8368 -0.62522,1.0483 -1.25789,2.6825 -1.55604,4.0192 -0.31316,1.4041 -0.34479,3.8357 -0.068,5.2257 0.32261,1.6199 1.19021,3.8122 1.90722,4.8191 0.11255,0.1581 0.20462,0.3197 0.20462,0.3592 0,0.1237 -1.16994,-0.5721 -2.89659,-1.7229 z"
         id="path835-5"
         inkscape:connector-curvature="0" />
      <path
         d="m 31.862604,1118.1176 h 5.48 c 0.52,-4.68 1.32,-14.12 1.84,-24.8 h -5.48 l -0.32,16.92 h -0.16 c -0.92,-3.68 -1.48,-5.76 -2.48,-9.4 h -2.92 c -0.92,3.64 -1.32,5.68 -2.2,9.4 h -0.16 l -0.6,-16.92 h -5.64 c 0.52,10.68 1.28,20.12 1.8,24.8 h 5.32 l 2.68,-10.68 z"
         id="path4558"
         inkscape:connector-curvature="0" />
      <path
         d="m 59.093854,1118.5976 0.52,-4.68 c -8.08,-0.12 -11.08,-1.04 -11.72,-4.4 l 12.2,-0.32 c 0.72,-7.4 -1.96,-11.88 -7.76,-11.88 -5.4,0 -10.16,4.8 -10.16,11.12 0,6.6 3.4,10.52 16.92,10.16 z m -7.8,-16.68 c 2.28,0 3.2,1.48 3.32,4.12 -2.08,0.04 -5,0.16 -6.84,0.2 0.2,-3.2 1.36,-4.32 3.52,-4.32 z"
         id="path4560"
         inkscape:connector-curvature="0" />
      <path
         d="m 71.165104,1118.6776 c 6.08,0 11.4,-4.44 11.4,-11.8 0,-5.84 -3,-9.56 -7.2,-9.56 -1.96,0 -3.56,0.84 -4.8,2 v -9.8 l -5.68,0.48 v 27.56 c 1.92,0.76 3.92,1.12 6.28,1.12 z m 2.04,-4.88 c -1,0 -1.8,-0.16 -2.64,-0.44 v -10.64 c 0.8,-0.52 1.64,-0.8 2.44,-0.8 2.36,0 3.92,2.04 3.92,6.36 0,4 -1.16,5.52 -3.72,5.52 z"
         id="path4562"
         inkscape:connector-curvature="0" />
      <path
         d="m 87.276354,1113.2376 v 5.2 c 12.439996,0.32 16.719996,-3.88 16.719996,-7.96 0,-5.88 -10.759996,-7.48 -10.759996,-10.6 0,-1.52 1.72,-2.12 9.159996,-1.6 l -0.32,-5.2 c -10.399996,-0.52 -14.999996,3.64 -14.999996,7.56 0,5.68 10.759996,7 10.759996,10.52 0,1.76 -2.759996,2.6 -10.559996,2.08 z"
         id="path4564"
         inkscape:connector-curvature="0" />
      <path
         d="m 124.9476,1118.3976 0.6,-4.64 c -5.56,-0.12 -7.44,-0.68 -7.44,-3.52 v -8.08 h 7.04 v -4.28 h -7.04 v -5.8 l -5.64,0.52 v 5.28 h -3.6 l -0.48,4.28 h 4.08 v 8.96 c 0,5.4 3,7.52 12.48,7.28 z"
         id="path4566"
         inkscape:connector-curvature="0" />
      <path
         d="m 138.69885,1114.3576 c -1.68,0 -2.68,-0.88 -2.68,-2.36 0,-1.72 0.92,-2.76 6.08,-2.2 0.04,1.32 0.04,2.48 0.12,3.48 -1.16,0.68 -2.44,1.08 -3.52,1.08 z m 4.16,3.92 5.24,-0.28 c -0.2,-2.72 -0.44,-6.24 -0.44,-9.88 0,-8.04 -2.92,-10.64 -15.64,-10.68 l -0.52,4.76 c 8.32,0.2 10.28,0.92 10.56,4 -8.2,-0.16 -11.68,3.2 -11.68,7.16 0,3.28 2.44,5.28 6,5.28 2.68,0 4.64,-1.2 6.08,-2.64 z"
         id="path4568"
         inkscape:connector-curvature="0" />
      <path
         d="m 169.8901,1118.1176 0.48,-4.24 h -5.96 v -23.8 h -11.08 l -0.48,4.08 5.84,0.32 v 19.4 h -5.92 v 4.24 z"
         id="path4570"
         inkscape:connector-curvature="0" />
      <path
         d="m 187.72135,1118.4776 6.08,-0.72 -6.28,-10.56 c 2.04,-2.92 3.92,-6.04 5.68,-9.04 l -5.84,-0.4 c -1.44,2.84 -2.92,5.48 -4.64,8 l -1.68,0.04 v -16.28 l -5.68,0.48 v 28.12 h 5.68 v -8.28 l 1.8,-0.08 z"
         id="path4572"
         inkscape:connector-curvature="0" />
      <path
         d="m 213.3126,1118.5976 0.52,-4.68 c -8.08,-0.12 -11.08,-1.04 -11.72,-4.4 l 12.2,-0.32 c 0.72,-7.4 -1.96,-11.88 -7.76,-11.88 -5.4,0 -10.16,4.8 -10.16,11.12 0,6.6 3.4,10.52 16.92,10.16 z m -7.8,-16.68 c 2.28,0 3.2,1.48 3.32,4.12 -2.08,0.04 -5,0.16 -6.84,0.2 0.2,-3.2 1.36,-4.32 3.52,-4.32 z"
         id="path4574"
         inkscape:connector-curvature="0" />
      <path
         d="m 234.18385,1118.1176 0.48,-4.24 h -5.52 c -0.08,-3.88 -0.12,-6.76 -0.16,-9.36 2.32,-0.84 4.92,-1.32 7.84,-1.44 l -0.2,-6.04 c -3.52,0.52 -6.2,2.2 -7.92,4.36 l -0.4,-3.52 h -8.96 l -0.44,4.04 4.48,0.32 c 0.08,3.16 0.12,6.8 0.16,11.64 h -4.48 v 4.24 z"
         id="path4576"
         inkscape:connector-curvature="0" />
    </g>
  </g>
</svg>
